<svg id="Artwork" xmlns="http://www.w3.org/2000/svg" viewBox="0 0 200 200"><defs><style>.cls-1{fill:#231f20;}</style></defs><path class="cls-1" d="M100,148.56A45.56,45.56,0,1,1,145.56,103,45.61,45.61,0,0,1,100,148.56Zm0-84.46A38.9,38.9,0,1,0,138.9,103,38.94,38.94,0,0,0,100,64.1Z"/><path class="cls-1" d="M105,185.5H95a11.38,11.38,0,0,1-11.37-11.36,4.66,4.66,0,0,0-3.3-4.48A69.27,69.27,0,0,1,66.78,164a4.71,4.71,0,0,0-5.52.82,11.37,11.37,0,0,1-16.07,0l-7-7.05a11.35,11.35,0,0,1,0-16l0,0a4.68,4.68,0,0,0,.82-5.52,69.74,69.74,0,0,1-5.62-13.57,4.66,4.66,0,0,0-4.48-3.3A11.38,11.38,0,0,1,17.5,108V98A11.38,11.38,0,0,1,28.86,86.65a4.66,4.66,0,0,0,4.48-3.3A69.74,69.74,0,0,1,39,69.78a4.68,4.68,0,0,0-.82-5.52l0,0a11.35,11.35,0,0,1,0-16l7-7a11.36,11.36,0,0,1,16-.1l.1.1a4.7,4.7,0,0,0,5.52.83,69.1,69.1,0,0,1,13.58-5.63,4.66,4.66,0,0,0,3.29-4.48A11.38,11.38,0,0,1,95,20.5h10a11.38,11.38,0,0,1,11.37,11.36,4.66,4.66,0,0,0,3.3,4.48A69.38,69.38,0,0,1,133.22,42a4.7,4.7,0,0,0,5.52-.83l.1-.1a11.36,11.36,0,0,1,16,.1l7.05,7a11.37,11.37,0,0,1,0,16l0,0a4.7,4.7,0,0,0-.83,5.52,69.27,69.27,0,0,1,5.63,13.57,4.66,4.66,0,0,0,4.48,3.3A11.38,11.38,0,0,1,182.5,98v10a11.38,11.38,0,0,1-11.36,11.37,4.66,4.66,0,0,0-4.48,3.3A69.27,69.27,0,0,1,161,136.22a4.7,4.7,0,0,0,.83,5.52l0,0a11.37,11.37,0,0,1,0,16l-7,7.05a11.39,11.39,0,0,1-16.08,0,4.7,4.7,0,0,0-5.52-.83,69.21,69.21,0,0,1-13.58,5.63,4.66,4.66,0,0,0-3.29,4.48A11.38,11.38,0,0,1,105,185.5ZM64.61,156.83A11.12,11.12,0,0,1,70,158.19a62.61,62.61,0,0,0,12.27,5.08,11.38,11.38,0,0,1,8.08,10.87,4.7,4.7,0,0,0,4.7,4.7h10a4.7,4.7,0,0,0,4.7-4.7,11.38,11.38,0,0,1,8.08-10.87A62.36,62.36,0,0,0,130,158.19a11.39,11.39,0,0,1,13.42,1.95,4.72,4.72,0,0,0,6.66,0l7-7.05a4.71,4.71,0,0,0,0-6.65l0,0A11.39,11.39,0,0,1,155.18,133a62.46,62.46,0,0,0,5.09-12.26,11.37,11.37,0,0,1,10.87-8.08,4.71,4.71,0,0,0,4.7-4.71V98a4.71,4.71,0,0,0-4.7-4.71,11.37,11.37,0,0,1-10.87-8.08A62.46,62.46,0,0,0,155.18,73a11.41,11.41,0,0,1,1.93-13.39l0,0a4.71,4.71,0,0,0,0-6.65l-7.05-7a4.68,4.68,0,0,0-6.64,0l-.11.1A11.38,11.38,0,0,1,130,47.81a62.36,62.36,0,0,0-12.27-5.08,11.38,11.38,0,0,1-8.08-10.87,4.7,4.7,0,0,0-4.7-4.7H95a4.7,4.7,0,0,0-4.7,4.7,11.38,11.38,0,0,1-8.08,10.87A62.61,62.61,0,0,0,70,47.81,11.38,11.38,0,0,1,56.65,46l-.11-.1a4.68,4.68,0,0,0-6.64,0l-7,7a4.7,4.7,0,0,0,0,6.65l0,0A11.36,11.36,0,0,1,44.81,73a63.55,63.55,0,0,0-5.08,12.26,11.37,11.37,0,0,1-10.87,8.08A4.71,4.71,0,0,0,24.16,98v10a4.71,4.71,0,0,0,4.7,4.71,11.37,11.37,0,0,1,10.87,8.08A63.55,63.55,0,0,0,44.81,133a11.36,11.36,0,0,1-1.92,13.38l0,0a4.7,4.7,0,0,0,0,6.65l7,7.05a4.71,4.71,0,0,0,6.65,0A11.4,11.4,0,0,1,64.61,156.83Z"/></svg>